# xmcd
#
# Track frame offsets:
#	150
#	19704
#	37254
#	53079
#	69755
#	88331
#	112216
#	126031
#
# Disc length: 1905 seconds
#
# Revision: 1
# Processed by: cddbd v1.5.2PL0 Copyright (c) Steve Scherf et al.
# Submitted via: audiograbber 1.83.01
#
DISCID=6c076f08
DTITLE=Mark Allan - Destination Out of Here
DYEAR=2009
DGENRE=Country
TTITLE0=With Just One Kiss
TTITLE1=Doing That Thing Called Love
TTITLE2=Pick Your Poison
TTITLE3=Don't Give Up On Me
TTITLE4=Fool in Love
TTITLE5=Maybe Someday
TTITLE6=Destination Out of Here
TTITLE7=Let's Party
EXTD=
EXTT0=
EXTT1=
EXTT2=
EXTT3=
EXTT4=
EXTT5=
EXTT6=
EXTT7=
PLAYORDER=
